<svg width="22" height="43" viewBox="0 0 22 43" fill="none" xmlns="http://www.w3.org/2000/svg">
<path d="M18.8125 0.671875H2.6875C2.15292 0.671875 1.64024 0.884235 1.26224 1.26224C0.884235 1.64024 0.671875 2.15292 0.671875 2.6875V40.3125C0.671875 40.8471 0.884235 41.3598 1.26224 41.7378C1.64024 42.1158 2.15292 42.3281 2.6875 42.3281H10.0781V28.1838C8.36307 28.0114 6.77987 27.1865 5.65595 25.8796C4.53203 24.5728 3.95338 22.8839 4.03967 21.1624C4.12597 19.4409 4.8706 17.8183 6.11957 16.6304C7.36855 15.4425 9.02631 14.78 10.75 14.78C12.4737 14.78 14.1315 15.4425 15.3804 16.6304C16.6294 17.8183 17.374 19.4409 17.4603 21.1624C17.5466 22.8839 16.968 24.5728 15.8441 25.8796C14.7201 27.1865 13.1369 28.0114 11.4219 28.1838V42.3281H18.8125C19.3471 42.3281 19.8598 42.1158 20.2378 41.7378C20.6158 41.3598 20.8281 40.8471 20.8281 40.3125V2.6875C20.8281 2.15292 20.6158 1.64024 20.2378 1.26224C19.8598 0.884235 19.3471 0.671875 18.8125 0.671875ZM10.2125 7.525C10.2125 8.23777 9.92935 8.92135 9.42535 9.42535C8.92135 9.92935 8.23777 10.2125 7.525 10.2125H4.03125C3.31848 10.2125 2.6349 9.92935 2.1309 9.42535C1.6269 8.92135 1.34375 8.23777 1.34375 7.525V4.03125C1.34375 3.31848 1.6269 2.6349 2.1309 2.1309C2.6349 1.6269 3.31848 1.34375 4.03125 1.34375H7.525C8.23777 1.34375 8.92135 1.6269 9.42535 2.1309C9.92935 2.6349 10.2125 3.31848 10.2125 4.03125V7.525Z" fill="#B3B3B3"/>
<path d="M18.8125 0H2.6875C1.97473 0 1.29115 0.283147 0.787151 0.787151C0.283147 1.29115 0 1.97473 0 2.6875L0 40.3125C0 41.0253 0.283147 41.7089 0.787151 42.2129C1.29115 42.7169 1.97473 43 2.6875 43H10.0781V41.6562H2.6875C2.33112 41.6562 1.98933 41.5147 1.73733 41.2627C1.48532 41.0107 1.34375 40.6689 1.34375 40.3125V2.6875C1.34375 2.33112 1.48532 1.98933 1.73733 1.73733C1.98933 1.48532 2.33112 1.34375 2.6875 1.34375H18.8125C19.1689 1.34375 19.5107 1.48532 19.7627 1.73733C20.0147 1.98933 20.1562 2.33112 20.1562 2.6875V40.3125C20.1562 40.6689 20.0147 41.0107 19.7627 41.2627C19.5107 41.5147 19.1689 41.6562 18.8125 41.6562H11.4219V43H18.8125C19.5253 43 20.2088 42.7169 20.7129 42.2129C21.2169 41.7089 21.5 41.0253 21.5 40.3125V2.6875C21.5 1.97473 21.2169 1.29115 20.7129 0.787151C20.2088 0.283147 19.5253 0 18.8125 0V0Z" fill="#B3B3B3"/>
</svg>
