<svg width="40" height="43" viewBox="0 0 40 43" fill="none" xmlns="http://www.w3.org/2000/svg">
<path d="M1.78419 4.53358C1.7842 4.34623 1.83978 4.1631 1.94392 4.00736C2.04806 3.85163 2.19607 3.73029 2.36921 3.65872C2.54234 3.58715 2.73282 3.56856 2.91653 3.6053C3.10024 3.64204 3.26891 3.73247 3.4012 3.86513C3.53349 3.99779 3.62344 4.16672 3.65966 4.35053C3.69589 4.53434 3.67676 4.72477 3.6047 4.8977C3.53264 5.07064 3.41089 5.2183 3.25486 5.322C3.09883 5.4257 2.91554 5.48077 2.72819 5.48024C2.6039 5.4806 2.48077 5.45633 2.36591 5.40885C2.25104 5.36137 2.14672 5.29161 2.05895 5.2036C1.97119 5.11559 1.90172 5.01106 1.85456 4.89607C1.80741 4.78107 1.78349 4.65787 1.78419 4.53358Z" fill="#B3B3B3"/>
<path d="M4.1333 3.37595C4.1333 3.23196 4.176 3.09121 4.25599 2.97149C4.33598 2.85178 4.44968 2.75847 4.58271 2.70337C4.71573 2.64826 4.86211 2.63385 5.00333 2.66194C5.14454 2.69003 5.27426 2.75936 5.37607 2.86118C5.47789 2.96299 5.54722 3.09271 5.57531 3.23392C5.6034 3.37514 5.58899 3.52152 5.53389 3.65454C5.47878 3.78757 5.38547 3.90127 5.26576 3.98126C5.14604 4.06125 5.00529 4.10395 4.8613 4.10395C4.66822 4.10395 4.48305 4.02725 4.34653 3.89072C4.21 3.7542 4.1333 3.56903 4.1333 3.37595Z" fill="#B3B3B3"/>
<path d="M9.33317 41.0665V1.59984C9.33317 1.50917 9.33317 1.42117 9.33317 1.33317C9.35158 1.10582 9.39907 0.881767 9.4745 0.666504H1.59984C1.3523 0.666504 1.1149 0.764837 0.939871 0.939871C0.764837 1.1149 0.666504 1.3523 0.666504 1.59984V41.0665C0.666504 41.314 0.764837 41.5514 0.939871 41.7265C1.1149 41.9015 1.3523 41.9998 1.59984 41.9998H9.48784C9.41241 41.7846 9.36491 41.5605 9.3465 41.3332C9.33317 41.2452 9.33317 41.1572 9.33317 41.0665ZM1.59984 1.33317C1.69507 1.22104 1.81358 1.131 1.94713 1.06929C2.08068 1.00758 2.22606 0.975693 2.37317 0.975837H5.12784C5.39779 0.976541 5.65648 1.08409 5.84737 1.27498C6.03825 1.46586 6.1458 1.72455 6.1465 1.9945V4.75717C6.1465 5.02734 6.03918 5.28644 5.84814 5.47748C5.65711 5.66851 5.398 5.77584 5.12784 5.77584H2.36517C2.095 5.77584 1.8359 5.66851 1.64486 5.47748C1.45383 5.28644 1.3465 5.02734 1.3465 4.75717V1.9945C1.34937 1.7509 1.43922 1.51635 1.59984 1.33317ZM2.73584 3.15717C2.95579 3.15647 3.1686 3.07899 3.33751 2.9381C3.50642 2.79721 3.62083 2.60176 3.66099 2.3855C3.70114 2.16924 3.66452 1.94575 3.55744 1.75362C3.45036 1.56149 3.27955 1.41278 3.0745 1.33317C2.85197 1.24414 2.60371 1.24414 2.38117 1.33317C2.17548 1.41302 2.00426 1.5624 1.89725 1.75537C1.79024 1.94833 1.75421 2.17268 1.7954 2.38944C1.8366 2.60621 1.95243 2.8017 2.12277 2.94195C2.29311 3.0822 2.50719 3.15835 2.72784 3.15717H2.73584Z" fill="#B3B3B3"/>
<path d="M12.2666 41.3332H28.6266C28.5688 41.5254 28.4508 41.6939 28.29 41.814C28.1291 41.934 27.9339 41.9992 27.7332 41.9998H10.9679C10.8279 41.8017 10.7365 41.5733 10.7012 41.3332C10.6851 41.2452 10.6771 41.1559 10.6772 41.0665V1.59984C10.6771 1.5104 10.6851 1.42114 10.7012 1.33317C10.7365 1.09308 10.8279 0.864683 10.9679 0.666504H27.7332C27.9339 0.667165 28.1291 0.73232 28.29 0.852357C28.4508 0.972395 28.5688 1.14096 28.6266 1.33317H12.2666C12.1959 1.33317 12.128 1.36127 12.078 1.41128C12.028 1.46129 11.9999 1.52911 11.9999 1.59984V41.0665C11.9999 41.1372 12.028 41.2051 12.078 41.2551C12.128 41.3051 12.1959 41.3332 12.2666 41.3332Z" fill="#B3B3B3"/>
<path d="M10.6907 41.3333C10.7259 41.5734 10.8173 41.8018 10.9573 42C11.1064 42.2076 11.3031 42.3765 11.531 42.4925C11.7588 42.6085 12.011 42.6682 12.2667 42.6667H27.7333C27.9872 42.6665 28.2373 42.606 28.4631 42.4901C28.6889 42.3741 28.8839 42.2062 29.032 42C29.172 41.8018 29.2634 41.5734 29.2987 41.3333H10.6907ZM9.35733 41.3333H1.6C1.52928 41.3333 1.46145 41.3052 1.41144 41.2552C1.36143 41.2052 1.33333 41.1374 1.33333 41.0667V1.6C1.33333 1.52928 1.36143 1.46145 1.41144 1.41144C1.46145 1.36143 1.52928 1.33333 1.6 1.33333C1.69524 1.22121 1.81375 1.13116 1.94729 1.06945C2.08084 1.00775 2.22622 0.975856 2.37333 0.976H5.128C5.27511 0.975856 5.4205 1.00775 5.55404 1.06945C5.68759 1.13116 5.8061 1.22121 5.90133 1.33333H9.34667C9.36507 1.10598 9.41257 0.88193 9.488 0.666667C9.56503 0.43092 9.67356 0.206668 9.81067 0L1.6 0C1.17565 0 0.768687 0.168571 0.468629 0.468629C0.168571 0.768687 0 1.17565 0 1.6L0 41.0667C0 41.491 0.168571 41.898 0.468629 42.198C0.768687 42.4981 1.17565 42.6667 1.6 42.6667H9.81067C9.67356 42.46 9.56503 42.2357 9.488 42C9.41257 41.7847 9.36507 41.5607 9.34667 41.3333H9.35733ZM3.07467 1.33333C2.85213 1.24431 2.60387 1.24431 2.38133 1.33333H3.07467ZM29.032 0.666667C28.8839 0.460499 28.6889 0.292517 28.4631 0.176596C28.2373 0.0606758 27.9872 0.000143746 27.7333 0L12.2667 0C12.0128 0.000143746 11.7627 0.0606758 11.5369 0.176596C11.3111 0.292517 11.1161 0.460499 10.968 0.666667C10.828 0.864845 10.7366 1.09324 10.7013 1.33333H29.32C29.2784 1.09137 29.1796 0.86283 29.032 0.666667Z" fill="#B3B3B3"/>
<path d="M38.3998 0H12.2665C12.0127 0.000143746 11.7625 0.0606758 11.5367 0.176596C11.3109 0.292517 11.1159 0.460499 10.9678 0.666667C10.8278 0.864845 10.7364 1.09324 10.7012 1.33333C10.6814 1.42096 10.6698 1.51023 10.6665 1.6V41.0667C10.6663 41.1561 10.6743 41.2454 10.6905 41.3333C10.7258 41.5734 10.8171 41.8018 10.9572 42C11.1063 42.2076 11.303 42.3765 11.5308 42.4925C11.7586 42.6085 12.0109 42.6682 12.2665 42.6667H38.3998C38.8242 42.6667 39.2312 42.4981 39.5312 42.198C39.8313 41.898 39.9998 41.491 39.9998 41.0667V1.6C39.9998 1.17565 39.8313 0.768687 39.5312 0.468629C39.2312 0.168571 38.8242 0 38.3998 0V0ZM38.6665 41.0667C38.6665 41.1374 38.6384 41.2052 38.5884 41.2552C38.5384 41.3052 38.4706 41.3333 38.3998 41.3333H12.2665C12.1958 41.3333 12.128 41.3052 12.0779 41.2552C12.0279 41.2052 11.9998 41.1374 11.9998 41.0667V1.6C11.9998 1.52928 12.0279 1.46145 12.0779 1.41144C12.128 1.36143 12.1958 1.33333 12.2665 1.33333H38.3998C38.4706 1.33333 38.5384 1.36143 38.5884 1.41144C38.6384 1.46145 38.6665 1.52928 38.6665 1.6V41.0667Z" fill="white"/>
<path d="M38.4002 0.666504H12.2668C12.0661 0.667165 11.871 0.73232 11.7101 0.852357C11.5493 0.972395 11.4313 1.14096 11.3735 1.33317C11.3466 1.4195 11.3331 1.50943 11.3335 1.59984V41.0665C11.3331 41.1569 11.3466 41.2468 11.3735 41.3332C11.4313 41.5254 11.5493 41.6939 11.7101 41.814C11.871 41.934 12.0661 41.9992 12.2668 41.9998H38.4002C38.6477 41.9998 38.8851 41.9015 39.0601 41.7265C39.2352 41.5514 39.3335 41.314 39.3335 41.0665V1.59984C39.3335 1.3523 39.2352 1.1149 39.0601 0.939871C38.8851 0.764837 38.6477 0.666504 38.4002 0.666504ZM38.6668 41.0665C38.6668 41.1372 38.6387 41.2051 38.5887 41.2551C38.5387 41.3051 38.4709 41.3332 38.4002 41.3332H12.2668C12.1961 41.3332 12.1283 41.3051 12.0783 41.2551C12.0283 41.2051 12.0002 41.1372 12.0002 41.0665V1.59984C12.0002 1.52911 12.0283 1.46129 12.0783 1.41128C12.1283 1.36127 12.1961 1.33317 12.2668 1.33317H38.4002C38.4709 1.33317 38.5387 1.36127 38.5887 1.41128C38.6387 1.46129 38.6668 1.52911 38.6668 1.59984V41.0665Z" fill="white"/>
<path d="M38.3998 0H12.2665C12.0127 0.000143746 11.7625 0.0606758 11.5367 0.176596C11.3109 0.292517 11.1159 0.460499 10.9678 0.666667C10.8278 0.864845 10.7364 1.09324 10.7012 1.33333C10.6814 1.42096 10.6698 1.51023 10.6665 1.6V41.0667C10.6663 41.1561 10.6743 41.2454 10.6905 41.3333C10.7258 41.5734 10.8171 41.8018 10.9572 42C11.1063 42.2076 11.303 42.3765 11.5308 42.4925C11.7586 42.6085 12.0109 42.6682 12.2665 42.6667H38.3998C38.8242 42.6667 39.2312 42.4981 39.5312 42.198C39.8313 41.898 39.9998 41.491 39.9998 41.0667V1.6C39.9998 1.17565 39.8313 0.768687 39.5312 0.468629C39.2312 0.168571 38.8242 0 38.3998 0V0ZM38.6665 41.0667C38.6665 41.1374 38.6384 41.2052 38.5884 41.2552C38.5384 41.3052 38.4706 41.3333 38.3998 41.3333H12.2665C12.1958 41.3333 12.128 41.3052 12.0779 41.2552C12.0279 41.2052 11.9998 41.1374 11.9998 41.0667V1.6C11.9998 1.52928 12.0279 1.46145 12.0779 1.41144C12.128 1.36143 12.1958 1.33333 12.2665 1.33333H38.3998C38.4706 1.33333 38.5384 1.36143 38.5884 1.41144C38.6384 1.46145 38.6665 1.52928 38.6665 1.6V41.0667Z" fill="#B3B3B3"/>
</svg>
