<svg width="30" height="44" viewBox="0 0 30 44" fill="none" xmlns="http://www.w3.org/2000/svg">
<path d="M3.68191 9.81792C4.66096 9.81792 5.45463 9.02424 5.45463 8.04519C5.45463 7.06614 4.66096 6.27246 3.68191 6.27246C2.70286 6.27246 1.90918 7.06614 1.90918 8.04519C1.90918 9.02424 2.70286 9.81792 3.68191 9.81792Z" fill="#B3B3B3"/>
<path d="M3.68191 5.45463C4.66096 5.45463 5.45463 4.66096 5.45463 3.68191C5.45463 2.70286 4.66096 1.90918 3.68191 1.90918C2.70286 1.90918 1.90918 2.70286 1.90918 3.68191C1.90918 4.66096 2.70286 5.45463 3.68191 5.45463Z" fill="#B3B3B3"/>
<path d="M5.72705 5.72718C5.72705 5.3772 5.83065 5.03505 6.02478 4.74385C6.21891 4.45265 6.4949 4.22543 6.81796 4.09082V7.36355C6.4949 7.22894 6.21891 7.00172 6.02478 6.71052C5.83065 6.41931 5.72705 6.07716 5.72705 5.72718Z" fill="#B3B3B3"/>
<path d="M1.36346 2.96437V8.76255C1.36346 9.18714 1.53213 9.59433 1.83235 9.89456C2.13258 10.1948 2.53978 10.3635 2.96437 10.3635H6.818V40.9089C6.81684 41.3736 6.8962 41.835 7.05255 42.2725C7.13451 42.5091 7.23861 42.7374 7.36346 42.9544H2.7271C2.18483 42.9536 1.66498 42.7379 1.28154 42.3545C0.898096 41.971 0.682362 41.4512 0.681641 40.9089V2.7271C0.682362 2.18483 0.898096 1.66498 1.28154 1.28154C1.66498 0.898096 2.18483 0.682362 2.7271 0.681641H7.36346C7.23861 0.898627 7.13451 1.12691 7.05255 1.36346H2.96164C2.53753 1.36418 2.13103 1.53317 1.83139 1.83332C1.53175 2.13347 1.36346 2.54025 1.36346 2.96437Z" fill="#B3B3B3"/>
<path d="M10.9089 42.2726H20.6098C20.4197 42.4877 20.1858 42.6599 19.9239 42.7774C19.6619 42.895 19.3779 42.9553 19.0907 42.9544H9.10619C8.88432 42.7587 8.69552 42.5285 8.5471 42.2726C8.3077 41.858 8.18166 41.3877 8.18164 40.9089V2.72711C8.18166 2.24836 8.3077 1.77806 8.5471 1.36347C8.69552 1.10757 8.88432 0.877329 9.10619 0.681652H19.0907C19.3779 0.680694 19.6619 0.741018 19.9239 0.858596C20.1858 0.976174 20.4197 1.1483 20.6098 1.36347C20.7907 1.56043 20.929 1.79253 21.0162 2.04529C21.0965 2.26358 21.1372 2.4945 21.1362 2.72711H14.9998C14.6382 2.72711 14.2913 2.58344 14.0356 2.32771C13.7799 2.07198 13.6362 1.72513 13.6362 1.36347H10.9089C10.5473 1.36347 10.2004 1.50714 9.94468 1.76287C9.68895 2.0186 9.54528 2.36545 9.54528 2.72711V40.9089C9.54528 41.2706 9.68895 41.6174 9.94468 41.8732C10.2004 42.1289 10.5473 42.2726 10.9089 42.2726Z" fill="#B3B3B3"/>
<path d="M8.54727 42.2723C8.6957 42.5282 8.88449 42.7585 9.10636 42.9542C9.60347 43.3946 10.245 43.6372 10.9091 43.636H19.0909C19.7551 43.6372 20.3965 43.3946 20.8936 42.9542C21.1107 42.7574 21.2948 42.5273 21.4391 42.2723H8.54727ZM1.36364 2.72689C1.36364 2.36523 1.5073 2.01839 1.76304 1.76265C2.01877 1.50692 2.36561 1.36325 2.72727 1.36325H7.05273C7.13469 1.12671 7.23878 0.898422 7.36364 0.681436C7.50582 0.437416 7.67309 0.208905 7.86273 -0.000382174H2.72727C2.00396 -0.000382174 1.31026 0.286955 0.7988 0.798418C0.287337 1.30988 0 2.00357 0 2.72689L0 40.9087C0 41.632 0.287337 42.3257 0.7988 42.8372C1.31026 43.3486 2.00396 43.636 2.72727 43.636H7.86273C7.67309 43.4267 7.50582 43.1982 7.36364 42.9542C7.2369 42.7374 7.13098 42.5091 7.04727 42.2723H2.72727C2.36561 42.2723 2.01877 42.1287 1.76304 41.8729C1.5073 41.6172 1.36364 41.2704 1.36364 40.9087V2.72689ZM21.7309 2.04507C21.673 1.80596 21.5811 1.57636 21.4582 1.36325C21.3139 1.10835 21.1297 0.878167 20.9127 0.681436C20.4107 0.236611 19.7616 -0.00631353 19.0909 -0.000382174H10.9091C10.245 -0.0016062 9.60347 0.241012 9.10636 0.681436C8.88449 0.877114 8.6957 1.10735 8.54727 1.36325H19.0909C19.3303 1.36326 19.5654 1.42627 19.7727 1.54596C19.98 1.66564 20.1521 1.83778 20.2718 2.04507C20.3925 2.25196 20.4556 2.48738 20.4545 2.72689H21.8182C21.8184 2.49682 21.7891 2.26767 21.7309 2.04507Z" fill="#B3B3B3"/>
<path d="M3.68191 9.81792C4.66096 9.81792 5.45463 9.02424 5.45463 8.04519C5.45463 7.06614 4.66096 6.27246 3.68191 6.27246C2.70286 6.27246 1.90918 7.06614 1.90918 8.04519C1.90918 9.02424 2.70286 9.81792 3.68191 9.81792Z" fill="white"/>
<path d="M3.68191 5.45463C4.66096 5.45463 5.45463 4.66096 5.45463 3.68191C5.45463 2.70286 4.66096 1.90918 3.68191 1.90918C2.70286 1.90918 1.90918 2.70286 1.90918 3.68191C1.90918 4.66096 2.70286 5.45463 3.68191 5.45463Z" fill="white"/>
<path d="M6.81796 4.09082V7.36355C6.4949 7.22894 6.21891 7.00172 6.02478 6.71052C5.83065 6.41931 5.72705 6.07716 5.72705 5.72718C5.72705 5.3772 5.83065 5.03505 6.02478 4.74385C6.21891 4.45265 6.4949 4.22543 6.81796 4.09082Z" fill="white"/>
<path d="M9.88619 1.82468C9.66632 2.07398 9.54509 2.39501 9.54528 2.72741V10.1592C9.3363 10.277 9.103 10.3452 8.86346 10.3583C8.82988 10.361 8.79613 10.361 8.76255 10.3583H8.18164V2.72741C8.18166 2.24866 8.3077 1.77836 8.5471 1.36377H8.76255C9.18321 1.36327 9.58705 1.52892 9.88619 1.82468Z" fill="white"/>
<path d="M3.68191 9.81792C4.66096 9.81792 5.45463 9.02424 5.45463 8.04519C5.45463 7.06614 4.66096 6.27246 3.68191 6.27246C2.70286 6.27246 1.90918 7.06614 1.90918 8.04519C1.90918 9.02424 2.70286 9.81792 3.68191 9.81792Z" fill="#B3B3B3"/>
<path d="M27.2726 4.60891e-06H10.9089C10.2448 -0.00121941 9.60329 0.241399 9.10619 0.681823C8.88432 0.8775 8.69552 1.10774 8.5471 1.36364C8.3077 1.77823 8.18166 2.24853 8.18164 2.72728V40.9091C8.18166 41.3878 8.3077 41.8581 8.5471 42.2727C8.69552 42.5286 8.88432 42.7589 9.10619 42.9546C9.60329 43.395 10.2448 43.6376 10.9089 43.6364H27.2726C27.9959 43.6364 28.6896 43.349 29.201 42.8376C29.7125 42.3261 29.9998 41.6324 29.9998 40.9091V2.72728C29.9998 2.00396 29.7125 1.31027 29.201 0.798804C28.6896 0.287341 27.9959 4.60891e-06 27.2726 4.60891e-06ZM28.6362 40.9091C28.6362 41.2708 28.4925 41.6176 28.2368 41.8733C27.9811 42.1291 27.6342 42.2727 27.2726 42.2727H10.9089C10.5473 42.2727 10.2004 42.1291 9.94468 41.8733C9.68895 41.6176 9.54528 41.2708 9.54528 40.9091V2.72728C9.54528 2.36562 9.68895 2.01877 9.94468 1.76304C10.2004 1.50731 10.5473 1.36364 10.9089 1.36364H13.6362C13.6362 1.7253 13.7799 2.07215 14.0356 2.32788C14.2913 2.58361 14.6382 2.72728 14.9998 2.72728H23.1816C23.5433 2.72728 23.8901 2.58361 24.1459 2.32788C24.4016 2.07215 24.5453 1.7253 24.5453 1.36364H27.2726C27.6342 1.36364 27.9811 1.50731 28.2368 1.76304C28.4925 2.01877 28.6362 2.36562 28.6362 2.72728V40.9091Z" fill="white"/>
<path d="M6.81796 4.09082V7.36355C6.4949 7.22894 6.21891 7.00172 6.02478 6.71052C5.83065 6.41931 5.72705 6.07716 5.72705 5.72718C5.72705 5.3772 5.83065 5.03505 6.02478 4.74385C6.21891 4.45265 6.4949 4.22543 6.81796 4.09082Z" fill="#B3B3B3"/>
<path d="M9.27255 5.72718C9.27327 6.07733 9.16996 6.41979 8.97574 6.71113C8.78152 7.00247 8.50513 7.22954 8.18164 7.36355V4.09082C8.50513 4.22483 8.78152 4.4519 8.97574 4.74324C9.16996 5.03458 9.27327 5.37704 9.27255 5.72718Z" fill="#B3B3B3"/>
<path d="M3.68191 5.45463C4.66096 5.45463 5.45463 4.66096 5.45463 3.68191C5.45463 2.70286 4.66096 1.90918 3.68191 1.90918C2.70286 1.90918 1.90918 2.70286 1.90918 3.68191C1.90918 4.66096 2.70286 5.45463 3.68191 5.45463Z" fill="#B3B3B3"/>
<path d="M27.2726 4.60891e-06H10.9089C10.2448 -0.00121941 9.60329 0.241399 9.10619 0.681823C8.88432 0.8775 8.69552 1.10774 8.5471 1.36364C8.3077 1.77823 8.18166 2.24853 8.18164 2.72728V40.9091C8.18166 41.3878 8.3077 41.8581 8.5471 42.2727C8.69552 42.5286 8.88432 42.7589 9.10619 42.9546C9.60329 43.395 10.2448 43.6376 10.9089 43.6364H27.2726C27.9959 43.6364 28.6896 43.349 29.201 42.8376C29.7125 42.3261 29.9998 41.6324 29.9998 40.9091V2.72728C29.9998 2.00396 29.7125 1.31027 29.201 0.798804C28.6896 0.287341 27.9959 4.60891e-06 27.2726 4.60891e-06ZM28.6362 40.9091C28.6362 41.2708 28.4925 41.6176 28.2368 41.8733C27.9811 42.1291 27.6342 42.2727 27.2726 42.2727H10.9089C10.5473 42.2727 10.2004 42.1291 9.94468 41.8733C9.68895 41.6176 9.54528 41.2708 9.54528 40.9091V2.72728C9.54528 2.36562 9.68895 2.01877 9.94468 1.76304C10.2004 1.50731 10.5473 1.36364 10.9089 1.36364H13.6362C13.6362 1.7253 13.7799 2.07215 14.0356 2.32788C14.2913 2.58361 14.6382 2.72728 14.9998 2.72728H23.1816C23.5433 2.72728 23.8901 2.58361 24.1459 2.32788C24.4016 2.07215 24.5453 1.7253 24.5453 1.36364H27.2726C27.6342 1.36364 27.9811 1.50731 28.2368 1.76304C28.4925 2.01877 28.6362 2.36562 28.6362 2.72728V40.9091Z" fill="white"/>
<path d="M27.2729 0.681643H10.9092C10.6222 0.68121 10.3383 0.74177 10.0764 0.859313C9.81453 0.976856 9.5806 1.1487 9.39013 1.36346C9.36065 1.39332 9.33331 1.42521 9.30832 1.45892C9.0202 1.81877 8.86339 2.26611 8.86377 2.7271V40.9089C8.86664 41.4505 9.08306 41.9691 9.46604 42.3521C9.84901 42.7351 10.3676 42.9515 10.9092 42.9544H27.2729C27.8153 42.9544 28.3356 42.7389 28.7192 42.3553C29.1028 41.9717 29.3183 41.4514 29.3183 40.9089V2.7271C29.3183 2.18461 29.1028 1.66434 28.7192 1.28074C28.3356 0.897146 27.8153 0.681643 27.2729 0.681643ZM28.6365 40.9089C28.6365 41.2706 28.4928 41.6174 28.2371 41.8732C27.9814 42.1289 27.6345 42.2726 27.2729 42.2726H10.9092C10.5476 42.2726 10.2007 42.1289 9.94499 41.8732C9.68926 41.6174 9.54559 41.2706 9.54559 40.9089V2.7271C9.54559 2.36544 9.68926 2.01859 9.94499 1.76286C10.2007 1.50713 10.5476 1.36346 10.9092 1.36346H13.6365C13.6365 1.72512 13.7802 2.07197 14.0359 2.3277C14.2916 2.58343 14.6385 2.7271 15.0001 2.7271H23.182C23.5436 2.7271 23.8905 2.58343 24.1462 2.3277C24.4019 2.07197 24.5456 1.72512 24.5456 1.36346H27.2729C27.6345 1.36346 27.9814 1.50713 28.2371 1.76286C28.4928 2.01859 28.6365 2.36544 28.6365 2.7271V40.9089Z" fill="white"/>
<path d="M27.2726 4.60891e-06H10.9089C10.2448 -0.00121941 9.60329 0.241399 9.10619 0.681823C8.88432 0.8775 8.69552 1.10774 8.5471 1.36364C8.3077 1.77823 8.18166 2.24853 8.18164 2.72728V40.9091C8.18166 41.3878 8.3077 41.8581 8.5471 42.2727C8.69552 42.5286 8.88432 42.7589 9.10619 42.9546C9.60329 43.395 10.2448 43.6376 10.9089 43.6364H27.2726C27.9959 43.6364 28.6896 43.349 29.201 42.8376C29.7125 42.3261 29.9998 41.6324 29.9998 40.9091V2.72728C29.9998 2.00396 29.7125 1.31027 29.201 0.798804C28.6896 0.287341 27.9959 4.60891e-06 27.2726 4.60891e-06ZM28.6362 40.9091C28.6362 41.2708 28.4925 41.6176 28.2368 41.8733C27.9811 42.1291 27.6342 42.2727 27.2726 42.2727H10.9089C10.5473 42.2727 10.2004 42.1291 9.94468 41.8733C9.68895 41.6176 9.54528 41.2708 9.54528 40.9091V2.72728C9.54528 2.36562 9.68895 2.01877 9.94468 1.76304C10.2004 1.50731 10.5473 1.36364 10.9089 1.36364H27.2726C27.6342 1.36364 27.9811 1.50731 28.2368 1.76304C28.4925 2.01877 28.6362 2.36562 28.6362 2.72728V40.9091Z" fill="#B3B3B3"/>
<path d="M15.0002 2.04528C14.8193 2.04528 14.6459 1.97344 14.5181 1.84558C14.3902 1.71771 14.3184 1.54429 14.3184 1.36346C14.3184 1.18263 14.3902 1.00921 14.5181 0.881341C14.6459 0.753475 14.8193 0.681641 15.0002 0.681641H23.182C23.3628 0.681641 23.5362 0.753475 23.6641 0.881341C23.792 1.00921 23.8638 1.18263 23.8638 1.36346C23.8638 1.54429 23.792 1.71771 23.6641 1.84558C23.5362 1.97344 23.3628 2.04528 23.182 2.04528H15.0002Z" fill="white"/>
<path d="M24.5453 1.36364C24.5453 1.7253 24.4017 2.07214 24.1459 2.32787C23.8902 2.5836 23.5434 2.72727 23.1817 2.72727H14.9999C14.6382 2.72727 14.2914 2.5836 14.0356 2.32787C13.7799 2.07214 13.6362 1.7253 13.6362 1.36364C13.6352 1.12413 13.6983 0.88871 13.819 0.681818C13.9387 0.474524 14.1108 0.302385 14.3181 0.182701C14.5254 0.0630175 14.7605 6.08075e-06 14.9999 0L23.1817 0C23.4211 6.08075e-06 23.6562 0.0630175 23.8635 0.182701C24.0708 0.302385 24.2429 0.474524 24.3626 0.681818C24.4833 0.88871 24.5464 1.12413 24.5453 1.36364Z" fill="#B3B3B3"/>
</svg>
