<svg width="48" height="42" viewBox="0 0 48 42" fill="none" xmlns="http://www.w3.org/2000/svg">
<path d="M45.9337 0.966797H1.42063C0.639284 0.966797 0 1.60581 0 2.38682V27.9473C0 28.7283 0.639284 29.3673 1.42063 29.3673H2.36772V28.184H1.42063C1.30224 28.184 1.18386 28.0656 1.18386 27.9473V2.38682C1.18386 2.24482 1.30224 2.15015 1.42063 2.15015H45.9337C46.0521 2.15015 46.1705 2.24482 46.1705 2.38682V27.9473C46.1705 28.0656 46.0521 28.184 45.9337 28.184H44.9866V29.3673H45.9337C46.7151 29.3673 47.3543 28.7283 47.3543 27.9473V2.38682C47.3543 1.60581 46.7151 0.966797 45.9337 0.966797Z" fill="#B3B3B3"/>
<path d="M45.9337 0.966797H1.42063C0.639284 0.966797 0 1.60581 0 2.38682V27.9473C0 28.7283 0.639284 29.3673 1.42063 29.3673H2.36772V28.184H1.42063C1.30224 28.184 1.18386 28.0656 1.18386 27.9473V2.38682C1.18386 2.24482 1.30224 2.15015 1.42063 2.15015H45.9337C46.0521 2.15015 46.1705 2.24482 46.1705 2.38682V27.9473C46.1705 28.0656 46.0521 28.184 45.9337 28.184H44.9866V29.3673H45.9337C46.7151 29.3673 47.3543 28.7283 47.3543 27.9473V2.38682C47.3543 1.60581 46.7151 0.966797 45.9337 0.966797Z" fill="#B3B3B3"/>
<path d="M45.9337 29.3673H44.9866V28.1839H2.36772V29.3673H1.42063C0.639284 29.3673 0 28.7283 0 27.9473V32.6807C0 33.4617 0.639284 34.1007 1.42063 34.1007H45.9337C46.7151 34.1007 47.3543 33.4617 47.3543 32.6807V27.9473C47.3543 28.7283 46.7151 29.3673 45.9337 29.3673ZM24.861 31.9707C24.861 32.231 24.6479 32.444 24.3875 32.444H22.9669C22.7064 32.444 22.4933 32.231 22.4933 31.9707V30.5506C22.4933 30.2903 22.7064 30.0773 22.9669 30.0773H24.3875C24.6479 30.0773 24.861 30.2903 24.861 30.5506V31.9707Z" fill="#B3B3B3"/>
<path d="M28.9335 36.4673H19.0128C18.0657 36.4673 17.7579 36.7276 17.7105 37.059C17.5448 38.195 16.8818 39.3073 16.3136 40.0647C15.9821 40.538 16.3136 41.177 16.8818 41.177H30.4252C30.9934 41.177 31.3486 40.5144 30.9934 40.0647C30.4252 39.2837 29.7859 38.195 29.5965 37.059C29.5965 36.7276 29.2887 36.4673 28.9335 36.4673Z" fill="#B3B3B3"/>
</svg>
