<svg width="24" height="25" viewBox="0 0 24 25" fill="none" xmlns="http://www.w3.org/2000/svg">
<path d="M2.31661 16.2242V2.31774H0V0H3.47491C3.78211 0 4.07673 0.122095 4.29395 0.339426C4.51117 0.556756 4.63321 0.85152 4.63321 1.15887V15.0653H19.0402L21.3568 5.79436H6.94982V3.47662H22.8417C23.0178 3.47662 23.1915 3.51678 23.3498 3.59405C23.508 3.67132 23.6465 3.78366 23.7549 3.92253C23.8632 4.06141 23.9384 4.22316 23.9749 4.3955C24.0114 4.56783 24.0081 4.74622 23.9653 4.91709L21.0695 16.5058C21.0068 16.7564 20.8621 16.9789 20.6586 17.1378C20.455 17.2967 20.2042 17.3831 19.946 17.3831H3.47491C3.16771 17.3831 2.87309 17.261 2.65586 17.0437C2.43864 16.8263 2.31661 16.5316 2.31661 16.2242ZM4.63321 24.3363C4.01881 24.3363 3.42957 24.0921 2.99512 23.6575C2.56068 23.2228 2.31661 22.6333 2.31661 22.0186C2.31661 21.4039 2.56068 20.8143 2.99512 20.3797C3.42957 19.945 4.01881 19.7008 4.63321 19.7008C5.24761 19.7008 5.83685 19.945 6.2713 20.3797C6.70575 20.8143 6.94982 21.4039 6.94982 22.0186C6.94982 22.6333 6.70575 23.2228 6.2713 23.6575C5.83685 24.0921 5.24761 24.3363 4.63321 24.3363ZM18.5328 24.3363C17.9184 24.3363 17.3292 24.0921 16.8948 23.6575C16.4603 23.2228 16.2162 22.6333 16.2162 22.0186C16.2162 21.4039 16.4603 20.8143 16.8948 20.3797C17.3292 19.945 17.9184 19.7008 18.5328 19.7008C19.1472 19.7008 19.7365 19.945 20.1709 20.3797C20.6054 20.8143 20.8494 21.4039 20.8494 22.0186C20.8494 22.6333 20.6054 23.2228 20.1709 23.6575C19.7365 24.0921 19.1472 24.3363 18.5328 24.3363Z" fill="white"/>
</svg>
