<svg width="10" height="10" viewBox="0 0 10 10" fill="none" xmlns="http://www.w3.org/2000/svg">
<path d="M2.20819 5.89633C2.31638 6.66097 2.72209 7.35853 3.3577 7.81463C4.49369 8.60609 5.99482 8.61951 7.14433 7.84146C7.33366 7.6939 7.57709 7.61341 7.80699 7.62682C8.13156 7.65365 8.40203 7.8817 8.4967 8.17682C8.56431 8.41829 8.46965 8.67316 8.25327 8.80731C7.4148 9.42439 6.40053 9.77316 5.3592 9.77316C3.69579 9.78658 2.31638 9.19634 1.38325 7.7878C0.815255 6.94268 0.652971 5.99024 0.707066 4.98414C0.774684 3.73658 1.24801 2.6634 2.22172 1.8317C3.73637 0.543891 6.37348 0.517061 7.76642 1.79145C8.46965 2.43536 8.84831 3.25365 9.02412 4.17926C9.06469 4.46097 9.09174 4.74267 9.10526 5.02438C9.13231 5.60121 8.87536 5.8695 8.29384 5.8695C6.37348 5.8695 4.45312 5.8695 2.51924 5.8695L2.20819 5.89633ZM7.61766 4.60853C7.53652 3.2134 6.42758 2.22072 4.99407 2.24755C3.53351 2.27438 2.27581 3.36097 2.24876 4.60853H7.61766Z" fill="white"/>
</svg>
