<svg width="10" height="10" viewBox="0 0 10 10" fill="none" xmlns="http://www.w3.org/2000/svg">
<path d="M7.70096 8.33754C7.11945 8.98144 6.48384 9.42412 5.71299 9.63875C3.3734 10.3095 1.00676 8.86071 0.533434 6.45949C0.235914 4.98388 0.452295 3.61559 1.45304 2.42169C3.33283 0.194868 7.16002 0.342429 8.72876 3.02535C9.13447 3.7095 9.33732 4.48754 9.33732 5.279C9.35084 6.47291 9.33732 7.68022 9.33732 8.87412C9.33732 9.45095 8.94514 9.78631 8.37715 9.71924C7.97144 9.679 7.67391 9.33022 7.68744 8.94119C7.70096 8.7668 7.70096 8.579 7.70096 8.33754ZM1.96694 5.34608C1.99399 5.62778 2.03456 5.92291 2.10218 6.20461C2.41322 7.2912 3.10293 8.04242 4.22539 8.28388C5.33433 8.52534 6.32155 8.25705 7.06535 7.35827C7.67391 6.63388 7.82267 5.78876 7.74153 4.86315C7.57925 3.29364 6.17279 2.1534 4.59052 2.31438C4.46881 2.32779 4.3471 2.34121 4.22539 2.38145C2.87302 2.71681 1.99399 3.87047 1.96694 5.34608Z" fill="white"/>
</svg>
