<svg width="8" height="10" viewBox="0 0 8 10" fill="none" xmlns="http://www.w3.org/2000/svg">
<path d="M4.20331 9.78653C3.18904 9.78653 2.25591 9.62555 1.39039 9.14262C1.14697 9.00848 0.917067 8.8475 0.714212 8.67311C0.294978 8.32433 0.254407 7.89506 0.578975 7.54628C0.957638 7.14385 1.44449 7.14385 1.86372 7.47921C2.14772 7.73409 2.45876 7.93531 2.81038 8.09628C3.66237 8.43165 4.55493 8.47189 5.42044 8.09628C6.23186 7.73409 6.29948 6.88897 5.5692 6.37921C5.46101 6.29872 5.3393 6.23165 5.21759 6.19141C4.78483 6.05726 4.33855 5.92311 3.89227 5.82921C3.14847 5.66824 2.40467 5.48043 1.74201 5.06458C0.714209 4.40726 0.416688 3.07921 1.06582 2.12677C1.44449 1.6036 1.99896 1.22799 2.63457 1.06702C4.05456 0.677992 5.42045 0.758479 6.66462 1.59019C6.89452 1.75116 7.09738 1.95238 7.28671 2.16702C7.48956 2.36824 7.53013 2.66336 7.39489 2.91824C7.25966 3.17311 6.97567 3.30726 6.69167 3.2536C6.43472 3.19994 6.19129 3.10604 5.98844 2.94506C5.02826 2.1536 3.95989 2.14019 2.85095 2.5158C2.55343 2.59628 2.33705 2.86458 2.32352 3.17311C2.26943 3.52189 2.44524 3.87068 2.75628 4.03165C3.25666 4.32677 3.82465 4.42067 4.37912 4.54141C5.04178 4.66214 5.69092 4.86336 6.29948 5.13165C8.17927 6.04385 7.93585 8.27067 6.52939 9.16945C5.81263 9.65238 5.01473 9.79994 4.20331 9.78653Z" fill="white"/>
</svg>
