<svg width="5" height="13" viewBox="0 0 5 13" fill="none" xmlns="http://www.w3.org/2000/svg">
<path d="M0.855469 5.59627C0.855469 4.08042 0.855469 2.55115 0.855469 1.0353C0.855469 0.391392 1.34232 0.0291983 1.93736 0.217003C2.23489 0.297491 2.45127 0.565783 2.46479 0.87432C2.46479 0.968222 2.46479 1.06212 2.46479 1.16944C2.46479 4.02676 2.46479 6.87066 2.47831 9.72798C2.49184 10.0633 2.57298 10.3987 2.6947 10.7207C2.78936 11.0158 3.08688 11.1902 3.39792 11.1365C3.46554 11.1365 3.54668 11.1365 3.62783 11.1365C4.04706 11.1365 4.33106 11.3512 4.4122 11.7268C4.49334 12.1426 4.31754 12.478 3.92535 12.6255C3.16802 12.8938 2.46479 12.7194 1.86975 12.2097C1.28823 11.7133 0.936611 10.989 0.923087 10.2243C0.882516 9.31213 0.896041 8.38652 0.882518 7.47432C0.85547 6.84383 0.855469 6.21335 0.855469 5.59627Z" fill="white"/>
</svg>
