<svg width="10" height="14" viewBox="0 0 10 14" fill="none" xmlns="http://www.w3.org/2000/svg">
<path d="M2.46213 8.40465V9.08879C2.46213 10.2827 2.46213 11.49 2.46213 12.6839C2.47565 13.0059 2.29984 13.2876 2.00232 13.4083C1.7048 13.5693 1.33967 13.5156 1.09625 13.2742C0.974538 13.14 0.893393 12.979 0.839299 12.8046C0.812252 12.7107 0.812255 12.6303 0.825779 12.5364C0.825779 10.1486 0.825779 7.76074 0.825779 5.38635C0.825779 4.09855 1.23148 2.9583 2.19166 2.07294C3.50344 0.865621 5.05865 0.557084 6.72205 1.09367C8.37192 1.61684 9.35914 2.79733 9.67018 4.48757C9.95418 6.04367 9.57552 7.43879 8.46659 8.61928C6.99252 10.1754 4.27428 10.2022 2.74612 8.61928C2.66498 8.53879 2.59737 8.45831 2.51622 8.37782L2.46213 8.40465ZM2.39451 5.3327C2.42156 5.54733 2.42156 5.77538 2.46213 6.00343C2.6785 7.04977 3.2465 7.82782 4.27429 8.19001C5.30208 8.55221 6.28929 8.43148 7.12775 7.70709C7.96621 6.9827 8.29078 6.00343 8.14202 4.91684C7.8986 3.02538 6.11349 1.84489 4.26076 2.50221C3.11126 2.90465 2.40803 4.00465 2.39451 5.3327Z" fill="white"/>
</svg>
