<svg width="10" height="10" viewBox="0 0 10 10" fill="none" xmlns="http://www.w3.org/2000/svg">
<path d="M4.67455 9.78655C3.56561 9.78655 2.22677 9.14265 1.36126 7.68045C0.2388 5.77557 0.482222 2.16703 3.74142 1.09386C5.55359 0.490205 7.58213 1.04021 8.70459 2.4085C9.50249 3.37435 9.78648 4.50118 9.69182 5.72191C9.65125 6.70118 9.27259 7.62679 8.62346 8.3646C7.7309 9.37069 6.58139 9.78655 4.67455 9.78655ZM2.34849 5.41338C2.37553 5.68167 2.41611 5.94996 2.4702 6.21825C2.76772 7.30484 3.45742 8.04264 4.57989 8.27069C5.70235 8.49874 6.70309 8.25728 7.46042 7.33167C8.04193 6.62069 8.21774 5.77557 8.09603 4.87679C7.79851 2.60972 5.71587 1.83167 4.06599 2.52923C2.87591 3.0524 2.40258 4.07191 2.34849 5.41338Z" fill="white"/>
</svg>
