<svg width="46" height="44" viewBox="0 0 46 44" fill="none" xmlns="http://www.w3.org/2000/svg">
<path d="M40.0722 16.0439C39.369 15.8427 38.7199 15.4671 38.1789 14.9573C35.65 12.5963 32.215 11.1878 28.4419 11.3085C21.2879 11.5366 15.4997 17.3585 15.351 24.4549C15.2834 27.7549 16.4058 30.7866 18.3397 33.161C18.8401 33.778 19.9761 34.8512 19.9761 34.8512C20.6928 35.5354 21.2743 34.6634 20.6928 34.1805C20.3953 33.9256 20.1113 33.6573 19.8408 33.3756C17.6635 31.122 16.3247 28.0768 16.3247 24.7098C16.3382 17.8817 21.964 12.2878 28.8341 12.261C31.7687 12.2476 34.4599 13.2268 36.6102 14.8768C37.6921 15.7756 36.7724 16.4598 35.1361 15.4134C33.2969 14.1927 31.079 13.5085 28.6988 13.5488C22.6808 13.6561 17.7717 18.4988 17.6365 24.4683C17.5553 28.1171 19.2323 31.3768 21.8829 33.4695C22.1263 33.6573 22.3697 33.8451 22.6267 34.0061C23.2082 34.4219 23.5057 34.878 23.5057 34.878C23.7627 35.3207 23.8844 35.75 23.8844 36.1524C23.8844 36.4878 23.8168 36.8232 23.6815 37.1183C23.0595 38.6207 21.1526 39.6 21.1526 39.6C21.1526 39.6 17.9881 41.3976 14.6613 42.6988C12.484 43.5439 10.2255 44.1744 8.76495 43.9463C5.05947 43.3561 5.12709 41.7732 4.9648 41.1024C4.78899 40.4451 5.00537 38.8219 5.15413 38.2317C5.30289 37.6415 3.51777 36.7695 3.51777 36.7695C3.51777 36.7695 3.1932 36.3268 3.62596 35.6427C4.04519 34.9585 4.24805 34.9988 4.24805 34.9988L3.69358 34.6768C2.31416 34.0061 2.85511 33.1878 2.85511 33.1878C2.85511 33.1878 2.99035 32.839 3.15263 32.3963C3.36901 31.7927 3.61244 31.028 3.55834 30.7732C3.46368 30.3439 2.53054 30.1024 2.53054 30.1024C2.32769 30.0488 2.15188 29.9817 2.00312 29.9012C1.02942 29.4451 0.85361 28.7476 0.907705 28.1841C0.948276 27.7683 1.13761 27.3793 1.40808 27.0573C4.34271 23.6098 5.12709 21.1817 5.26232 19.7329C5.31642 19.1695 5.26232 18.7402 5.1947 18.4585C5.08651 18.0024 5.08651 17.9219 5.0189 17.05C5.0189 17.0098 5.0189 16.9695 5.0189 16.9293C5.0189 10.9195 8.25105 5.64756 13.0925 2.76341C14.9858 1.79756 17.0414 1.05976 19.2052 0.590244C20.9903 0.201219 22.8566 0 24.7634 0C33.1887 0 40.6132 3.98415 44.9407 10.0341C45.7792 11.2012 46.0767 12.6902 45.644 14.0585C44.7108 16.889 41.8032 16.5402 40.0722 16.0439Z" fill="white"/>
</svg>
