<svg width="14" height="13" viewBox="0 0 14 13" fill="none" xmlns="http://www.w3.org/2000/svg">
<path d="M11.3253 3.9866C10.8249 4.99269 10.338 5.98538 9.83766 6.99147C9.05329 8.5744 8.28244 10.1439 7.49806 11.7134C7.32226 12.0622 7.06531 12.2634 6.6596 12.2366C6.29446 12.2232 6.07808 12.022 5.9158 11.7134C5.05028 9.98294 4.17124 8.25245 3.30573 6.52196C2.94059 5.79757 2.57545 5.07318 2.21031 4.34879C2.18327 4.28172 2.14269 4.21465 2.10212 4.14757H2.04803V4.38904C2.04803 6.81708 2.04803 9.24513 2.04803 11.6732C2.06155 11.8342 2.04803 11.9817 2.00746 12.1427C1.89927 12.5317 1.53413 12.7732 1.12842 12.7195C0.72271 12.6793 0.398141 12.3573 0.371094 11.9549C0.371094 11.9012 0.371094 11.8476 0.371094 11.7939C0.371094 8.21221 0.371094 4.64391 0.371094 1.06221C0.371094 0.471965 0.736233 0.109769 1.2907 0.150013C1.6288 0.176842 1.84517 0.378061 1.99393 0.673183C3.07583 2.81952 4.15772 4.96587 5.23961 7.09879C5.71294 8.03782 6.18627 8.97684 6.6596 9.91586C6.70017 9.98294 6.74074 10.0634 6.79483 10.1707C6.94359 9.86221 7.09235 9.5805 7.22759 9.29879C8.63405 6.41465 10.0405 3.54392 11.4605 0.659769C11.6228 0.270745 12.042 0.0695249 12.4342 0.176842C12.8264 0.270744 13.0563 0.579281 13.0563 1.02196C13.0563 4.6305 13.0563 8.23903 13.0563 11.8476C13.0833 12.3037 12.7182 12.7061 12.2584 12.7195C12.2449 12.7195 12.2313 12.7195 12.2043 12.7195C11.7174 12.7195 11.3794 12.3439 11.3794 11.8207C11.3794 9.29879 11.3794 6.76343 11.3794 4.24148V3.97318L11.3253 3.9866Z" fill="white"/>
</svg>
