<svg width="10" height="14" viewBox="0 0 10 14" fill="none" xmlns="http://www.w3.org/2000/svg">
<path d="M7.77388 7.98883C7.71979 8.0559 7.67922 8.12297 7.62512 8.20346C6.124 10.4571 2.82422 10.1888 1.40424 8.28395C0.782152 7.43883 0.457586 6.41932 0.471109 5.38639C0.457586 4.03151 0.890341 2.85102 1.93166 1.93883C2.85127 1.13395 3.94669 0.83883 5.16382 0.879073C7.15179 0.946147 8.76111 2.19371 9.24796 4.08517C9.34263 4.46078 9.39672 4.8498 9.39672 5.22541C9.41024 6.45956 9.41024 7.68029 9.39672 8.91444C9.3832 10.9803 8.05788 12.7779 6.11047 13.2205C4.19011 13.6498 2.49966 13.2071 1.14729 11.7181C0.795677 11.3291 0.795677 10.9266 1.14729 10.6449C1.52595 10.3364 1.99928 10.39 2.33737 10.7925C3.25698 11.8791 4.78515 12.2547 6.11047 11.7047C7.03008 11.3022 7.5575 10.5779 7.73331 9.612C7.82797 9.08883 7.82797 8.53883 7.86855 8.00224L7.77388 7.98883ZM4.94744 8.35102C6.16457 8.35102 7.11122 7.73395 7.57103 6.63395C7.8415 5.97663 7.89559 5.26566 7.73331 4.58151C7.48988 3.50834 6.8678 2.71688 5.77238 2.43517C4.67696 2.15346 3.64917 2.34127 2.83775 3.1998C2.20214 3.87053 2.0128 4.68883 2.05337 5.58761C2.12099 7.17053 3.33812 8.35102 4.94744 8.35102Z" fill="white"/>
</svg>
